<svg version="1" xmlns="http://www.w3.org/2000/svg" width="42.084" height="47.041" viewBox="0 0 42.084 47.041"><path fill="#A4C639" d="M34.144 14.01h-26.2c-.008.11-.017.22-.017.332v18.754c0 1.926 1.457 3.49 3.316 3.628v7.433a2.884 2.884 0 0 0 5.77 0v-7.42h8.058v7.42a2.885 2.885 0 0 0 5.778 0v-7.433c1.858-.137 3.315-1.702 3.315-3.628V14.342c0-.113-.004-.223-.013-.333zM2.886 15.68a2.886 2.886 0 0 1 2.886 2.884v12.378a2.885 2.885 0 0 1-5.772 0V18.564a2.885 2.885 0 0 1 2.886-2.885zm36.312 0a2.885 2.885 0 0 1 2.886 2.884v12.378a2.885 2.885 0 0 1-2.886 2.886 2.884 2.884 0 0 1-2.885-2.886V18.564a2.884 2.884 0 0 1 2.885-2.885zM8.03 11.967h26.025c-.04-2.783-1.234-5.322-3.186-7.275L33.31.457a.304.304 0 0 0-.527-.304l-2.37 4.107c-2.053-1.853-4.82-3.1-7.925-3.4h-2.9c-3.1.3-5.87 1.547-7.923 3.4L9.297.152a.304.304 0 0 0-.527.304l2.445 4.235c-1.95 1.96-3.147 4.5-3.185 7.28zm17.293-5.163c-.002-.805.664-1.46 1.49-1.462.824-.002 1.493.648 1.496 1.454v.008c0 .805-.67 1.46-1.49 1.462-.83.002-1.5-.65-1.5-1.454v-.008zm-11.143 0c0-.805.665-1.46 1.49-1.462.823-.002 1.493.648 1.496 1.454v.008c.002.805-.664 1.46-1.488 1.462-.825.002-1.495-.65-1.498-1.454v-.008z"/></svg>