<svg version="1" id="Layer_1" xmlns="http://www.w3.org/2000/svg" viewBox="0 0 26.752 26.752"><style>#hover,#active{opacity:0}@media (min-width:11px){#normal{opacity:0}#hover{opacity:1}}@media (min-width:12px){#hover{opacity:0}#active{opacity:1}}@media (min-width:14px){#normal{opacity:1}#active{opacity:0}}@media (min-width:21px){#normal{opacity:0}#hover{opacity:1}}@media (min-width:22px){#hover{opacity:0}#active{opacity:1}}</style><path fill="#c2c2c2" d="M15.497 13.376L26.312 2.562a1.5 1.5 0 1 0-2.12-2.12L13.375 11.254 2.562.44a1.5 1.5 0 1 0-2.12 2.12l10.813 10.815L.44 24.19a1.5 1.5 0 0 0 2.12 2.12l10.816-10.813L24.19 26.312a1.497 1.497 0 0 0 2.122 0 1.5 1.5 0 0 0 0-2.12L15.497 13.375z" id="normal"/><path fill="#283645" d="M15.497 13.376L26.312 2.562a1.5 1.5 0 1 0-2.12-2.12L13.375 11.254 2.562.44a1.5 1.5 0 1 0-2.12 2.12l10.813 10.815L.44 24.19a1.5 1.5 0 0 0 2.12 2.12l10.816-10.813L24.19 26.312a1.497 1.497 0 0 0 2.122 0 1.5 1.5 0 0 0 0-2.12L15.497 13.375z" id="hover"/><path fill="#fff" d="M15.497 13.376L26.312 2.562a1.5 1.5 0 1 0-2.12-2.12L13.375 11.254 2.562.44a1.5 1.5 0 1 0-2.12 2.12l10.813 10.815L.44 24.19a1.5 1.5 0 0 0 2.12 2.12l10.816-10.813L24.19 26.312a1.497 1.497 0 0 0 2.122 0 1.5 1.5 0 0 0 0-2.12L15.497 13.375z" id="active"/></svg>