<svg version="1" id="Layer_1" xmlns="http://www.w3.org/2000/svg" viewBox="0 0 146.3 40.375"><style>#tablet,#desck{opacity:0}@media (min-width:145px){#mobile{opacity:0}#tablet{opacity:1}}@media (min-width:146px){#tablet{opacity:0}#desck{opacity:1}}</style><path d="M0 1.45C0 .74.58.16 1.256.16h7.18c5.087 0 8.436 2.705 8.436 7.148v.064c0 4.86-4.057 7.373-8.854 7.373H2.544v6.825c0 .708-.58 1.288-1.288 1.288C.58 22.858 0 22.278 0 21.57V1.45zm8.114 10.978c3.734 0 6.182-1.996 6.182-4.958v-.065c0-3.22-2.415-4.894-6.054-4.894H2.544v9.92h5.57zM21.73 1.288C21.73.58 22.307 0 22.982 0c.71 0 1.288.58 1.288 1.288V21.57c0 .71-.578 1.29-1.287 1.29-.676 0-1.255-.58-1.255-1.29V1.29zm9.14.032c0-.676.58-1.256 1.256-1.256h.354c.58 0 .934.29 1.288.74l13.684 17.45V1.256C47.452.58 47.998 0 48.707 0c.676 0 1.223.58 1.223 1.256v20.348c0 .676-.482 1.19-1.158 1.19h-.13c-.547 0-.933-.32-1.32-.77L33.35 4.154v17.45c0 .674-.548 1.254-1.256 1.254-.677 0-1.224-.58-1.224-1.257V1.32zm25.43-.032C56.3.58 56.88 0 57.556 0c.708 0 1.287.58 1.287 1.288v12.33L71.69.452c.29-.257.58-.45.998-.45.676 0 1.224.612 1.224 1.256 0 .354-.16.644-.42.9l-7.983 7.92 8.56 10.562c.22.29.35.547.35.934 0 .676-.58 1.288-1.29 1.288-.484 0-.807-.258-1.03-.58L63.7 11.82l-4.862 4.86v4.894a1.29 1.29 0 0 1-1.287 1.288c-.675 0-1.254-.58-1.254-1.288V1.288z" id="mobile" fill="#d22856"/><path d="M71.874 18.66c0-.707.58-1.287 1.256-1.287h7.18c5.087 0 8.436 2.704 8.436 7.147v.064c0 4.86-4.057 7.373-8.854 7.373h-5.474v6.825c0 .708-.58 1.288-1.288 1.288-.676 0-1.256-.58-1.256-1.288v-20.12zm8.114 10.98c3.734 0 6.182-1.996 6.182-4.958v-.064c0-3.22-2.415-4.894-6.054-4.894h-5.698v9.917h5.57zM93.603 18.5c0-.708.58-1.288 1.255-1.288.71 0 1.288.58 1.288 1.288v20.283c0 .708-.58 1.288-1.288 1.288-.676 0-1.255-.58-1.255-1.28V18.5zm9.14.032c0-.676.58-1.256 1.257-1.256h.354c.58 0 .934.29 1.288.74l13.684 17.45V18.468c0-.676.547-1.256 1.256-1.256.676 0 1.223.58 1.223 1.256v20.348c0 .676-.482 1.19-1.158 1.19h-.13c-.547 0-.933-.32-1.32-.77l-13.973-17.87v17.45c0 .676-.547 1.256-1.255 1.256-.68 0-1.23-.58-1.23-1.256V18.532zm25.43-.032c0-.708.58-1.288 1.257-1.288.708 0 1.287.58 1.287 1.288v12.33l12.847-13.167c.29-.257.58-.45.998-.45.676 0 1.224.61 1.224 1.255 0 .354-.16.644-.42.9l-7.983 7.92 8.564 10.562c.225.29.354.547.354.934 0 .676-.57 1.288-1.28 1.288-.48 0-.803-.258-1.03-.58l-8.41-10.462-4.86 4.86v4.894a1.29 1.29 0 0 1-1.284 1.288c-.677 0-1.256-.58-1.256-1.288V18.5zM60.5 28.32c0-.054-.01-.105-.016-.158-.006-.05-.01-.098-.02-.146-.002-.01 0-.017-.003-.025L55.29 6.65C54.93 4.303 52.697 0 46.69 0a1.5 1.5 0 0 0 0 3c4.857 0 5.576 3.73 5.64 4.143l4.767 19.7H55.02c-.74-5.926-5.8-10.53-11.926-10.53s-11.186 4.604-11.927 10.53H29.46c-.743-5.926-5.803-10.53-11.928-10.53S6.346 20.917 5.604 26.843H3.407L8.147 7.29l.027-.146C8.197 6.974 8.802 3 13.812 3a1.5 1.5 0 0 0 0-3c-6.006 0-8.238 4.303-8.6 6.65L.042 27.99c0 .01 0 .017-.002.025-.012.05-.015.098-.02.146-.008.06-.017.11-.017.16L0 28.35c0 .035.008.068.01.103.004.058.007.115.017.17.01.047.023.09.036.137.014.048.026.096.044.142.018.045.042.09.064.132.03.04.05.085.07.124a3.844 3.844 0 0 0 .186.227c.03.034.067.063.1.093.04.033.077.067.118.097.04.024.083.05.124.07.04.023.08.05.127.07.05.02.1.036.153.053.034.012.066.028.103.037.008.003.015 0 .023.004.106.02.216.04.33.04h4.1c.74 5.923 5.8 10.53 11.926 10.53s11.184-4.607 11.925-10.53h1.708c.742 5.923 5.802 10.53 11.927 10.53s11.185-4.607 11.926-10.53H59c.114 0 .224-.02.33-.04.01-.005.016 0 .024-.006.037-.01.07-.022.105-.034.05-.017.1-.032.15-.054.04-.02.08-.046.13-.07.04-.023.08-.046.12-.073a1.1 1.1 0 0 0 .11-.1c.033-.03.07-.06.1-.092.035-.033.064-.072.094-.11.03-.04.06-.076.086-.116.026-.04.046-.083.068-.125a1.18 1.18 0 0 0 .064-.135c.02-.044.03-.092.044-.14.012-.045.026-.09.035-.136.01-.057.016-.114.02-.17.003-.036.01-.07.01-.105.003-.01 0-.02 0-.027zm-42.97 9.055c-4.474 0-8.18-3.26-8.895-7.53-.082-.49-.135-.99-.135-1.5s.053-1.012.135-1.5c.716-4.272 4.42-7.532 8.896-7.532s8.19 3.26 8.9 7.53c.08.49.14.99.14 1.5s-.052 1.012-.134 1.5c-.715 4.273-4.42 7.532-8.896 7.532zm25.564 0c-4.475 0-8.18-3.26-8.896-7.53-.082-.49-.135-.99-.135-1.5s.053-1.012.135-1.5c.716-4.272 4.42-7.532 8.896-7.532s8.18 3.26 8.896 7.53c.082.49.135.99.135 1.5s-.053 1.012-.135 1.5c-.716 4.273-4.42 7.532-8.896 7.532z" id="tablet" fill="#d22856"/><g id="desck"><path d="M71.874 18.66c0-.707.58-1.287 1.256-1.287h7.18c5.087 0 8.436 2.704 8.436 7.147v.064c0 4.86-4.057 7.373-8.854 7.373h-5.474v6.825c0 .708-.58 1.288-1.288 1.288-.676 0-1.256-.58-1.256-1.288v-20.12zm8.114 10.98c3.734 0 6.182-1.996 6.182-4.958v-.064c0-3.22-2.415-4.894-6.054-4.894h-5.698v9.917h5.57zM93.603 18.5c0-.708.58-1.288 1.255-1.288.71 0 1.288.58 1.288 1.288v20.283c0 .708-.58 1.288-1.288 1.288-.676 0-1.255-.58-1.255-1.28V18.5zm9.14.032c0-.676.58-1.256 1.257-1.256h.354c.58 0 .934.29 1.288.74l13.684 17.45V18.468c0-.676.547-1.256 1.256-1.256.676 0 1.223.58 1.223 1.256v20.348c0 .676-.482 1.19-1.158 1.19h-.13c-.547 0-.933-.32-1.32-.77l-13.973-17.87v17.45c0 .676-.547 1.256-1.255 1.256-.68 0-1.23-.58-1.23-1.256V18.532zm25.43-.032c0-.708.58-1.288 1.257-1.288.708 0 1.287.58 1.287 1.288v12.33l12.847-13.167c.29-.257.58-.45.998-.45.676 0 1.224.61 1.224 1.255 0 .354-.16.644-.42.9l-7.983 7.92 8.564 10.562c.225.29.354.547.354.934 0 .676-.57 1.288-1.28 1.288-.48 0-.803-.258-1.03-.58l-8.41-10.462-4.86 4.86v4.894a1.29 1.29 0 0 1-1.284 1.288c-.677 0-1.256-.58-1.256-1.288V18.5z" fill="#d22856"/><path fill="#fff" d="M98.498 9.875a3.624 3.624 0 0 1-3.624-3.624 3.624 3.624 0 0 1-3.624 3.63 3.624 3.624 0 0 1 3.624 3.63 3.624 3.624 0 0 1 3.624-3.625z"/><g fill="#d22856"><path d="M43.094 19.312c.246 0 .488.014.73.033a2.493 2.493 0 0 0-2.137-1.22 1.994 1.994 0 0 1-1.884-1.355 11.9 11.9 0 0 0-2.09.816c.063.017.124.038.19.038a2 2 0 0 1 2 2c0 .096-.015.188-.028.28a9.02 9.02 0 0 1 3.22-.592z"/><path d="M60.498 28.32c0-.054-.01-.105-.016-.158-.006-.05-.01-.098-.02-.146-.002-.01 0-.017-.003-.025L55.28 6.65C54.922 4.303 52.69 0 46.682 0a1.5 1.5 0 0 0 0 3c4.86 0 5.578 3.73 5.64 4.143l4.77 19.7h-2.07c-.444-3.556-2.45-6.627-5.303-8.522a2.503 2.503 0 0 0-1.53 2.31c0 .09-.02.17-.03.258a9.035 9.035 0 0 1 3.83 5.965c.085.49.14.988.14 1.5s-.055 1.01-.137 1.5c-.715 4.27-4.42 7.53-8.895 7.53s-8.18-3.26-8.896-7.53c-.082-.49-.135-.99-.135-1.5s.052-1.01.134-1.5a8.92 8.92 0 0 1 .808-2.484 1.994 1.994 0 0 1-1.85-1.985.742.742 0 0 0-.192-.49 11.96 11.96 0 0 0-1.8 4.96h-1.71c-.74-5.928-5.8-10.53-11.925-10.53S6.344 20.925 5.6 26.852H3.408l4.74-19.56.028-.146C8.196 6.974 8.802 3 13.812 3a1.5 1.5 0 0 0 0-3c-6.006 0-8.238 4.303-8.6 6.65L.042 27.99c0 .01 0 .017-.002.025-.012.05-.015.098-.02.146-.008.06-.017.11-.017.16L0 28.35c0 .035.008.068.01.103.004.058.007.115.017.17.01.047.023.09.036.137.014.048.026.096.044.142.018.045.042.09.064.132.03.04.05.085.07.124a3.844 3.844 0 0 0 .186.227c.03.034.067.063.1.093.04.033.077.067.118.097.04.024.083.05.124.07.04.023.08.05.127.07.05.02.1.036.153.053.034.012.066.028.103.037.008.003.015 0 .023.004.106.02.216.04.33.04h4.1c.07.57.193 1.12.342 1.662.017-.06.038-.12.038-.19a2 2 0 0 1 2-2c.208 0 .405.04.594.1a8.94 8.94 0 0 1-.077-1.08c0-.51.05-1.01.133-1.5.716-4.27 4.42-7.53 8.896-7.53s8.18 3.26 8.895 7.53c.082.49.135.99.135 1.5s-.052 1.014-.134 1.5c-.716 4.275-4.42 7.534-8.896 7.534a8.957 8.957 0 0 1-5.45-1.84c-.354.33-.83.537-1.352.537a.75.75 0 0 0-.75.75c0 .265-.053.516-.146.747a11.944 11.944 0 0 0 7.695 2.81c6.124 0 11.185-4.605 11.926-10.53h1.71c.74 5.925 5.8 10.53 11.926 10.53s11.19-4.605 11.93-10.53H59c.114 0 .224-.017.33-.04.01 0 .016 0 .024-.003.037-.01.07-.025.105-.037.05-.017.1-.032.15-.054.04-.02.08-.04.13-.07a.932.932 0 0 0 .23-.165.7.7 0 0 0 .1-.09c.035-.033.064-.072.094-.11.03-.038.06-.075.086-.115.026-.04.046-.083.068-.125a1.15 1.15 0 0 0 .064-.13c.02-.048.03-.096.044-.144.012-.046.026-.09.035-.137.01-.058.016-.115.02-.17.003-.037.01-.07.01-.106.003-.007 0-.015 0-.023z"/></g><path fill="#fff" d="M50.686 16.125a4.5 4.5 0 0 1-4.5-4.5 4.5 4.5 0 0 1-4.498 4.5 4.5 4.5 0 0 1 4.5 4.5c0-2.486 2.012-4.5 4.498-4.5zm-12.782 3.5c-1.52 0-2.75-1.23-2.75-2.75 0 1.52-1.23 2.75-2.748 2.75 1.52 0 2.75 1.23 2.75 2.75a2.75 2.75 0 0 1 2.748-2.75zm-27.17 14.447c-1.52 0-2.75-1.23-2.75-2.75 0 1.52-1.23 2.75-2.748 2.75 1.52 0 2.75 1.23 2.75 2.748a2.748 2.748 0 0 1 2.748-2.748z"/></g></svg>