<svg id="Layer_1" xmlns="http://www.w3.org/2000/svg" viewBox="0 0 21.706 41.719"><style>#hover,#active{opacity:0}@media (min-width:22px){#normal{opacity:0}#hover{opacity:1}}@media (min-width:23px){#hover{opacity:0}#active{opacity:1}}</style><path fill="#bec2c7" d="M19.66 20.86L.25 1.445A.847.847 0 1 1 1.445.248L21.458 20.26c.33.33.33.867 0 1.197L1.445 41.47a.843.843 0 0 1-1.198 0 .847.847 0 0 1 0-1.197L19.66 20.86z" id="normal"/><path fill="#7e868f" d="M19.66 20.86L.25 1.445A.847.847 0 1 1 1.445.248L21.458 20.26c.33.33.33.867 0 1.197L1.445 41.47a.843.843 0 0 1-1.198 0 .847.847 0 0 1 0-1.197L19.66 20.86z" id="hover"/><path fill="#e9ebec" d="M19.66 20.86L.25 1.445A.847.847 0 1 1 1.445.248L21.458 20.26c.33.33.33.867 0 1.197L1.445 41.47a.843.843 0 0 1-1.198 0 .847.847 0 0 1 0-1.197L19.66 20.86z" id="active"/></svg>